<svg width="956" height="458" viewBox="0 0 956 458" fill="none" xmlns="http://www.w3.org/2000/svg">
<path d="M727 0.5C853.197 0.5 955.5 102.803 955.5 229C955.5 355.197 853.197 457.5 727 457.5H229C102.803 457.5 0.5 355.197 0.5 229C0.5 102.803 102.803 0.5 229 0.5H727Z" fill="white" stroke="black"/>
<path d="M216.146 260.355C216.146 294.367 187.012 321.939 151.073 321.939C115.134 321.939 86.0001 294.367 86.0001 260.355C86.0001 226.343 115.134 198.771 151.073 198.771C187.012 198.771 216.146 226.343 216.146 260.355Z" fill="#D9D9D9"/>
<mask id="path-3-inside-1_6_189" fill="white">
<path d="M278.96 35.3706C275.411 42.3557 273.381 50.4543 273.381 59.0894V204.702C266.148 163.547 228.353 132.172 182.815 132.172C132.107 132.172 90.9997 171.075 90.9995 219.065C90.9995 267.055 132.107 305.958 182.815 305.958C228.354 305.958 266.149 274.583 273.381 233.427V307.114C273.381 330.038 287.687 349.179 306.75 353.743L204.552 372.791C106.198 391.121 12.3992 321.004 2.03174 221.4C-8.32671 121.881 69.0822 35.8865 169.245 35.6401L278.96 35.3706ZM182.815 157.481C218.754 157.481 247.888 185.053 247.888 219.065C247.888 253.077 218.754 280.65 182.815 280.65C146.876 280.65 117.742 253.077 117.742 219.065C117.742 185.053 146.876 157.481 182.815 157.481Z"/>
</mask>
<path d="M278.96 35.3706C275.411 42.3557 273.381 50.4543 273.381 59.0894V204.702C266.148 163.547 228.353 132.172 182.815 132.172C132.107 132.172 90.9997 171.075 90.9995 219.065C90.9995 267.055 132.107 305.958 182.815 305.958C228.354 305.958 266.149 274.583 273.381 233.427V307.114C273.381 330.038 287.687 349.179 306.75 353.743L204.552 372.791C106.198 391.121 12.3992 321.004 2.03174 221.4C-8.32671 121.881 69.0822 35.8865 169.245 35.6401L278.96 35.3706ZM182.815 157.481C218.754 157.481 247.888 185.053 247.888 219.065C247.888 253.077 218.754 280.65 182.815 280.65C146.876 280.65 117.742 253.077 117.742 219.065C117.742 185.053 146.876 157.481 182.815 157.481Z" fill="#FFDADB"/>
<path d="M278.96 35.3706L292.333 42.1654C294.699 37.5094 294.473 31.9582 291.736 27.5102C288.999 23.0622 284.146 20.3578 278.924 20.3707L278.96 35.3706ZM273.381 59.0894L258.381 59.0894V59.0894H273.381ZM273.381 204.702L258.608 207.298C259.954 214.96 266.935 220.321 274.685 219.645C282.434 218.969 288.381 212.481 288.381 204.702H273.381ZM182.815 132.172L182.815 117.172H182.815V132.172ZM90.9995 219.065L75.9995 219.065V219.065H90.9995ZM182.815 305.958L182.815 320.958L182.815 320.958L182.815 305.958ZM273.381 233.427H288.381C288.381 225.648 282.434 219.16 274.684 218.484C266.935 217.808 259.954 223.169 258.608 230.831L273.381 233.427ZM306.75 353.743L309.498 368.489C316.459 367.191 321.565 361.202 321.745 354.123C321.924 347.044 317.129 340.804 310.242 339.155L306.75 353.743ZM204.552 372.791L207.301 387.537L207.301 387.537L204.552 372.791ZM2.03174 221.4L-12.8877 222.953L-12.8877 222.953L2.03174 221.4ZM169.245 35.6401L169.208 20.6402L169.208 20.6402L169.245 35.6401ZM182.815 157.481L182.815 142.481H182.815V157.481ZM247.888 219.065L262.888 219.065L262.888 219.065L247.888 219.065ZM182.815 280.65L182.815 295.65L182.815 295.65L182.815 280.65ZM117.742 219.065L102.742 219.065V219.065H117.742ZM278.96 35.3706L265.588 28.5758C260.966 37.672 258.381 48.0994 258.381 59.0894L273.381 59.0894L288.381 59.0894C288.381 52.8093 289.857 47.0394 292.333 42.1654L278.96 35.3706ZM273.381 59.0894H258.381V204.702H273.381H288.381V59.0894H273.381ZM273.381 204.702L288.155 202.105C279.581 153.322 235.163 117.172 182.815 117.172L182.815 132.172L182.815 147.172C221.543 147.172 252.715 173.772 258.608 207.298L273.381 204.702ZM182.815 132.172V117.172C124.612 117.172 75.9997 162.023 75.9995 219.065L90.9995 219.065L106 219.065C106 180.128 139.602 147.172 182.815 147.172V132.172ZM90.9995 219.065H75.9995C75.9995 276.107 124.612 320.958 182.815 320.958V305.958V290.958C139.602 290.958 106 258.002 106 219.065H90.9995ZM182.815 305.958L182.815 320.958C235.163 320.958 279.581 284.807 288.155 236.024L273.381 233.427L258.608 230.831C252.716 264.358 221.544 290.958 182.815 290.958L182.815 305.958ZM273.381 233.427H258.381V307.114H273.381H288.381V233.427H273.381ZM273.381 307.114H258.381C258.381 335.913 276.464 361.916 303.257 368.33L306.75 353.743L310.242 339.155C298.91 336.442 288.381 324.162 288.381 307.114H273.381ZM306.75 353.743L304.001 338.997L201.804 358.044L204.552 372.791L207.301 387.537L309.498 368.489L306.75 353.743ZM204.552 372.791L201.804 358.044C112.076 374.768 26.4133 310.753 16.9511 219.847L2.03174 221.4L-12.8877 222.953C-1.6148 331.255 100.32 407.475 207.301 387.537L204.552 372.791ZM2.03174 221.4L16.9511 219.847C7.51422 129.182 77.9853 50.8646 169.282 50.6401L169.245 35.6401L169.208 20.6402C60.1791 20.9083 -24.1676 114.58 -12.8877 222.953L2.03174 221.4ZM169.245 35.6401L169.281 50.6401L278.997 50.3706L278.96 35.3706L278.924 20.3707L169.208 20.6402L169.245 35.6401ZM182.815 157.481L182.815 172.481C211.259 172.481 232.888 194.105 232.888 219.065L247.888 219.065L262.888 219.065C262.888 176 226.248 142.481 182.815 142.481L182.815 157.481ZM247.888 219.065H232.888C232.888 244.025 211.259 265.65 182.815 265.65L182.815 280.65L182.815 295.65C226.249 295.65 262.888 262.129 262.888 219.065H247.888ZM182.815 280.65V265.65C154.371 265.65 132.742 244.025 132.742 219.065H117.742H102.742C102.742 262.129 139.381 295.65 182.815 295.65V280.65ZM117.742 219.065L132.742 219.065C132.742 194.105 154.371 172.481 182.815 172.481V157.481V142.481C139.382 142.481 102.742 176 102.742 219.065L117.742 219.065Z" fill="black" mask="url(#path-3-inside-1_6_189)"/>
<mask id="path-5-inside-2_6_189" fill="white">
<path d="M627.74 11.3271C651.01 11.3273 669.874 32.6678 669.874 58.9922V307.017C669.874 333.341 651.01 354.681 627.74 354.682H328.702C305.432 354.682 286.568 333.341 286.568 307.017V58.9922C286.568 32.6677 305.432 11.3271 328.702 11.3271H627.74ZM350.428 276.331H605.568L477.999 58.9922L350.428 276.331ZM560.122 251.021H395.876L477.999 111.11L560.122 251.021Z"/>
</mask>
<path d="M627.74 11.3271C651.01 11.3273 669.874 32.6678 669.874 58.9922V307.017C669.874 333.341 651.01 354.681 627.74 354.682H328.702C305.432 354.682 286.568 333.341 286.568 307.017V58.9922C286.568 32.6677 305.432 11.3271 328.702 11.3271H627.74ZM350.428 276.331H605.568L477.999 58.9922L350.428 276.331ZM560.122 251.021H395.876L477.999 111.11L560.122 251.021Z" fill="#DDFFDA"/>
<path d="M627.74 11.3271L627.74 -3.67285H627.74V11.3271ZM627.74 354.682L627.74 369.682L627.74 369.682L627.74 354.682ZM350.428 276.331L337.492 268.738C334.77 273.376 334.739 279.117 337.411 283.784C340.084 288.452 345.05 291.331 350.428 291.331V276.331ZM605.568 276.331V291.331C610.946 291.331 615.913 288.452 618.585 283.784C621.258 279.117 621.227 273.376 618.504 268.738L605.568 276.331ZM477.999 58.9922L490.935 51.3991C488.242 46.8106 483.319 43.9922 477.999 43.9922C472.678 43.9922 467.756 46.8106 465.063 51.3991L477.999 58.9922ZM560.122 251.021V266.021C565.5 266.021 570.467 263.142 573.139 258.475C575.811 253.807 575.781 248.067 573.058 243.428L560.122 251.021ZM395.876 251.021L382.94 243.428C380.217 248.067 380.186 253.807 382.859 258.475C385.531 263.142 390.498 266.021 395.876 266.021V251.021ZM477.999 111.11L490.935 103.517C488.242 98.9288 483.319 96.1104 477.999 96.1104C472.678 96.1104 467.756 98.9288 465.063 103.517L477.999 111.11ZM627.74 11.3271L627.74 26.3271C641.04 26.3272 654.874 39.1598 654.874 58.9922H669.874H684.874C684.874 26.1759 660.979 -3.67261 627.74 -3.67285L627.74 11.3271ZM669.874 58.9922H654.874V307.017H669.874H684.874V58.9922H669.874ZM669.874 307.017H654.874C654.874 326.849 641.04 339.682 627.74 339.682L627.74 354.682L627.74 369.682C660.979 369.681 684.874 339.833 684.874 307.017H669.874ZM627.74 354.682V339.682H328.702V354.682V369.682H627.74V354.682ZM328.702 354.682V339.682C315.402 339.682 301.568 326.849 301.568 307.017H286.568H271.568C271.568 339.833 295.462 369.682 328.702 369.682V354.682ZM286.568 307.017H301.568V58.9922H286.568H271.568V307.017H286.568ZM286.568 58.9922H301.568C301.568 39.1595 315.402 26.3271 328.702 26.3271V11.3271V-3.67285C295.462 -3.67285 271.568 26.1759 271.568 58.9922H286.568ZM328.702 11.3271V26.3271H627.74V11.3271V-3.67285H328.702V11.3271ZM350.428 276.331V291.331H605.568V276.331V261.331H350.428V276.331ZM605.568 276.331L618.504 268.738L490.935 51.3991L477.999 58.9922L465.063 66.5852L592.632 283.924L605.568 276.331ZM477.999 58.9922L465.063 51.3991L337.492 268.738L350.428 276.331L363.365 283.924L490.935 66.5853L477.999 58.9922ZM560.122 251.021V236.021H395.876V251.021V266.021H560.122V251.021ZM395.876 251.021L408.812 258.615L490.935 118.703L477.999 111.11L465.063 103.517L382.94 243.428L395.876 251.021ZM477.999 111.11L465.063 118.703L547.186 258.615L560.122 251.021L573.058 243.428L490.935 103.517L477.999 111.11Z" fill="black" mask="url(#path-5-inside-2_6_189)"/>
<path d="M740 205.943H863.46V315.192H740V205.943Z" fill="#D9D9D9"/>
<mask id="path-8-inside-3_6_189" fill="white">
<path d="M786.505 36.1304C886.667 36.3768 964.075 122.372 953.717 221.891C943.349 321.495 849.551 391.612 751.197 373.281L649 354.233C668.062 349.669 682.367 330.528 682.367 307.605V292.039H846.945V132.172H682.367V59.5796C682.367 50.9446 680.337 42.846 676.788 35.8608L786.505 36.1304ZM820.203 157.481V266.73H696.742V157.481H820.203Z"/>
</mask>
<path d="M786.505 36.1304C886.667 36.3768 964.075 122.372 953.717 221.891C943.349 321.495 849.551 391.612 751.197 373.281L649 354.233C668.062 349.669 682.367 330.528 682.367 307.605V292.039H846.945V132.172H682.367V59.5796C682.367 50.9446 680.337 42.846 676.788 35.8608L786.505 36.1304ZM820.203 157.481V266.73H696.742V157.481H820.203Z" fill="#E2E4FF"/>
<path d="M786.505 36.1304L786.542 21.1304L786.541 21.1304L786.505 36.1304ZM953.717 221.891L968.636 223.444L968.636 223.444L953.717 221.891ZM751.197 373.281L748.449 388.027L748.449 388.027L751.197 373.281ZM649 354.233L645.507 339.645C638.621 341.294 633.825 347.534 634.005 354.613C634.184 361.692 639.29 367.681 646.251 368.979L649 354.233ZM682.367 307.605L697.367 307.605V307.605H682.367ZM682.367 292.039V277.039C674.083 277.039 667.367 283.754 667.367 292.039H682.367ZM846.945 292.039V307.039C855.229 307.039 861.945 300.323 861.945 292.039H846.945ZM846.945 132.172H861.945C861.945 123.888 855.229 117.172 846.945 117.172V132.172ZM682.367 132.172H667.367C667.367 140.457 674.083 147.172 682.367 147.172V132.172ZM682.367 59.5796L697.367 59.5796L697.367 59.5795L682.367 59.5796ZM676.788 35.8608L676.825 20.8609C671.602 20.8481 666.749 23.5525 664.012 28.0005C661.276 32.4485 661.049 37.9997 663.415 42.6557L676.788 35.8608ZM820.203 157.481H835.203C835.203 149.197 828.487 142.481 820.203 142.481V157.481ZM820.203 266.73V281.73C828.487 281.73 835.203 275.014 835.203 266.73H820.203ZM696.742 266.73H681.742C681.742 275.014 688.458 281.73 696.742 281.73V266.73ZM696.742 157.481V142.481C688.458 142.481 681.742 149.197 681.742 157.481H696.742ZM786.505 36.1304L786.468 51.1303C877.764 51.3549 948.234 129.673 938.797 220.338L953.717 221.891L968.636 223.444C979.916 115.072 895.57 21.3986 786.542 21.1304L786.505 36.1304ZM953.717 221.891L938.797 220.338C929.335 311.244 843.673 375.258 753.945 358.535L751.197 373.281L748.449 388.027C855.429 407.965 957.363 331.746 968.636 223.444L953.717 221.891ZM751.197 373.281L753.945 358.535L651.748 339.487L649 354.233L646.251 368.979L748.449 388.027L751.197 373.281ZM649 354.233L652.492 368.821C679.284 362.406 697.367 336.404 697.367 307.605L682.367 307.605L667.367 307.605C667.367 324.653 656.839 336.932 645.507 339.645L649 354.233ZM682.367 307.605H697.367V292.039H682.367H667.367V307.605H682.367ZM682.367 292.039V307.039H846.945V292.039V277.039H682.367V292.039ZM846.945 292.039H861.945V132.172H846.945H831.945V292.039H846.945ZM846.945 132.172V117.172H682.367V132.172V147.172H846.945V132.172ZM682.367 132.172H697.367V59.5796H682.367H667.367V132.172H682.367ZM682.367 59.5796L697.367 59.5795C697.367 48.5897 694.783 38.1623 690.161 29.066L676.788 35.8608L663.415 42.6557C665.892 47.5296 667.367 53.2994 667.367 59.5796L682.367 59.5796ZM676.788 35.8608L676.751 50.8608L786.468 51.1303L786.505 36.1304L786.541 21.1304L676.825 20.8609L676.788 35.8608ZM820.203 157.481H805.203V266.73H820.203H835.203V157.481H820.203ZM820.203 266.73V251.73H696.742V266.73V281.73H820.203V266.73ZM696.742 266.73H711.742V157.481H696.742H681.742V266.73H696.742ZM696.742 157.481V172.481H820.203V157.481V142.481H696.742V157.481Z" fill="black" mask="url(#path-8-inside-3_6_189)"/>
<path d="M554.443 362.96L554.74 363.299L629.173 447.66L630.639 449.323H325.742L327.282 447.646L404.767 363.283L405.064 362.96H554.443ZM340.074 443.105H616.68L551.454 369.178H407.975L340.074 443.105Z" fill="black" stroke="black" stroke-width="2"/>
<path d="M646.699 448.322L846.82 402.556L660.962 363.96H573.158L646.699 448.322ZM836.899 402.655L647.531 445.962L577.885 366.069H660.72L836.899 402.655Z" fill="black" stroke="black"/>
<path d="M305.288 448.322L105.167 402.556L291.025 363.96H378.829L305.288 448.322ZM115.087 402.655L304.456 445.962L374.101 366.069H291.267L115.087 402.655Z" fill="black"/>
</svg>
